<svg xmlns="http://www.w3.org/2000/svg" viewBox="300 0 1200 900">
  <defs>
    <marker id="arrowhead" viewBox="0 -5 10 10" refX="10" refY="0" markerWidth="8" markerHeight="8" orient="auto">
      <path d="M0,-5L10,0L0,5" fill="#d0d7de"/>
    </marker>
    <symbol id="comment-icon" viewBox="0 0 16 16">
      <path d="M1 2.75C1 1.784 1.784 1 2.75 1h10.5c.966 0 1.75.784 1.75 1.75v7.5A1.75 1.75 0 0 1 13.25 12H9.06l-2.573 2.573A1.458 1.458 0 0 1 4 13.543V12H2.75A1.75 1.75 0 0 1 1 10.25Zm1.75-.25a.25.25 0 0 0-.25.25v7.5c0 .138.112.25.25.25h2v2.189l2.72-2.72.53-.219h4.5a.25.25 0 0 0 .25-.25v-7.5a.25.25 0 0 0-.25-.25Z" fill="#656d76"/>
    </symbol>
  </defs>
  <g transform="translate(404.33383757286447,-47.19164991840461) scale(0.8885837624202946)">
    <path d="M70,374 C135,374 135,136 200,136" fill="none" stroke="#d0d7de" stroke-width="2" marker-end="url(#arrowhead)"/>
    <path d="M70,374 C135,374 135,272 200,272" fill="none" stroke="#d0d7de" stroke-width="2" marker-end="url(#arrowhead)"/>
    <path d="M70,374 C135,374 135,408 200,408" fill="none" stroke="#d0d7de" stroke-width="2" marker-end="url(#arrowhead)"/>
    <path d="M480,408 C510,408 510,408 540,408" fill="none" stroke="#d0d7de" stroke-width="2" marker-end="url(#arrowhead)"/>
    <path d="M70,374 C135,374 135,612 200,612" fill="none" stroke="#d0d7de" stroke-width="2" marker-end="url(#arrowhead)"/>
    <path d="M480,612 C510,612 510,544 540,544" fill="none" stroke="#d0d7de" stroke-width="2" marker-end="url(#arrowhead)"/>
    <path d="M820,544 C850,544 850,544 880,544" fill="none" stroke="#d0d7de" stroke-width="2" marker-end="url(#arrowhead)"/>
    <path d="M480,612 C510,612 510,680 540,680" fill="none" stroke="#d0d7de" stroke-width="2" marker-end="url(#arrowhead)"/>
    <path d="M820,680 C850,680 850,680 880,680" fill="none" stroke="#d0d7de" stroke-width="2" marker-end="url(#arrowhead)"/>
    <path d="M70,952 C135,952 135,952 200,952" fill="none" stroke="#d0d7de" stroke-width="2" marker-end="url(#arrowhead)"/>
    <path d="M480,952 C510,952 510,952 540,952" fill="none" stroke="#d0d7de" stroke-width="2" marker-end="url(#arrowhead)"/>

    <!-- main branch -->
    <g transform="translate(0,374)">
      <rect x="-70" y="-18" width="140" height="36" rx="8" ry="8" fill="#eddeff" stroke="#8250df" stroke-width="1.5"/>
      <text x="0" y="5" text-anchor="middle" font-family="sans-serif" font-size="13" font-weight="600" fill="#8250df">main</text>
    </g>

    <!-- #158 Add E2E tests for checkout flow -->
    <g transform="translate(340,136)">
      <rect x="-140" y="-60" width="280" height="120" rx="8" ry="8" fill="#dafbe1" stroke="#238636" stroke-width="1.5"/>
      <circle cx="-122" cy="-36" r="5" fill="#238636"/>
      <text x="-108" y="-33" font-family="sans-serif" font-size="13" font-weight="600" fill="#1f2328">#158 Add E2E tests for checkout flow</text>
      <text x="-108" y="-11" font-family="sans-serif" font-size="11" fill="#656d76">test/checkout-e2e</text>
      <text x="-108" y="11" font-family="sans-serif" font-size="11" fill="#656d76">3d ago</text>
      <text x="95" y="11" font-family="sans-serif" font-size="11" font-weight="600" fill="#1a7f37" text-anchor="end">+567</text>
      <text x="128" y="11" font-family="sans-serif" font-size="11" font-weight="600" fill="#cf222e" text-anchor="end">−12</text>
      <circle cx="-114" cy="34" r="8" fill="#0969da"/>
      <text x="-114" y="37" text-anchor="middle" font-family="sans-serif" font-size="9" font-weight="600" fill="#fff">K</text>
      <text x="-100" y="37" font-family="sans-serif" font-size="11" fill="#656d76">kevinl</text>
      <circle cx="80" cy="34" r="8" fill="#e16f24" stroke="#fff" stroke-width="1.5"/>
      <text x="80" y="37" text-anchor="middle" font-family="sans-serif" font-size="9" font-weight="600" fill="#fff">D</text>
      <circle cx="86" cy="39" r="4" fill="#da3633" stroke="#fff" stroke-width="1.5"/>
      <circle cx="94" cy="34" r="8" fill="#1a7f37" stroke="#fff" stroke-width="1.5"/>
      <text x="94" y="37" text-anchor="middle" font-family="sans-serif" font-size="9" font-weight="600" fill="#fff">A</text>
      <circle cx="100" cy="39" r="4" fill="#8b949e" stroke="#fff" stroke-width="1.5"/>
      <use href="#comment-icon" x="108" y="28" width="12" height="12"/>
      <text x="128" y="37" font-family="sans-serif" font-size="11" fill="#656d76" text-anchor="end">9</text>
    </g>

    <!-- #161 Update CI pipeline for arm64 builds (draft) -->
    <g transform="translate(340,272)">
      <rect x="-140" y="-60" width="280" height="120" rx="8" ry="8" fill="#f6f8fa" stroke="#656d76" stroke-width="1.5"/>
      <circle cx="-122" cy="-36" r="5" fill="#656d76"/>
      <text x="-108" y="-33" font-family="sans-serif" font-size="13" font-weight="600" fill="#1f2328">#161 Update CI pipeline for arm64 builds</text>
      <text x="-108" y="-11" font-family="sans-serif" font-size="11" fill="#656d76">ci/arm64-support</text>
      <text x="-108" y="11" font-family="sans-serif" font-size="11" fill="#656d76">18h ago</text>
      <text x="95" y="11" font-family="sans-serif" font-size="11" font-weight="600" fill="#1a7f37" text-anchor="end">+94</text>
      <text x="128" y="11" font-family="sans-serif" font-size="11" font-weight="600" fill="#cf222e" text-anchor="end">−31</text>
      <circle cx="-114" cy="34" r="8" fill="#0969da"/>
      <text x="-114" y="37" text-anchor="middle" font-family="sans-serif" font-size="9" font-weight="600" fill="#fff">K</text>
      <text x="-100" y="37" font-family="sans-serif" font-size="11" fill="#656d76">kevinl</text>
      <use href="#comment-icon" x="108" y="28" width="12" height="12"/>
      <text x="128" y="37" font-family="sans-serif" font-size="11" fill="#656d76" text-anchor="end">1</text>
    </g>

    <!-- #138 Refactor API to REST v2 endpoints -->
    <g transform="translate(340,408)">
      <rect x="-140" y="-60" width="280" height="120" rx="8" ry="8" fill="#dafbe1" stroke="#238636" stroke-width="1.5"/>
      <circle cx="-122" cy="-36" r="5" fill="#238636"/>
      <text x="-108" y="-33" font-family="sans-serif" font-size="13" font-weight="600" fill="#1f2328">#138 Refactor API to REST v2 endpoints</text>
      <text x="-108" y="-11" font-family="sans-serif" font-size="11" fill="#656d76">refactor/api-v2</text>
      <text x="-108" y="11" font-family="sans-serif" font-size="11" fill="#656d76">8d ago</text>
      <text x="95" y="11" font-family="sans-serif" font-size="11" font-weight="600" fill="#1a7f37" text-anchor="end">+1247</text>
      <text x="128" y="11" font-family="sans-serif" font-size="11" font-weight="600" fill="#cf222e" text-anchor="end">−893</text>
      <circle cx="-114" cy="34" r="8" fill="#8250df"/>
      <text x="-114" y="37" text-anchor="middle" font-family="sans-serif" font-size="9" font-weight="600" fill="#fff">J</text>
      <text x="-100" y="37" font-family="sans-serif" font-size="11" fill="#656d76">jaredm</text>
      <circle cx="58" cy="34" r="8" fill="#bf3989" stroke="#fff" stroke-width="1.5"/>
      <text x="58" y="37" text-anchor="middle" font-family="sans-serif" font-size="9" font-weight="600" fill="#fff">S</text>
      <circle cx="64" cy="39" r="4" fill="#238636" stroke="#fff" stroke-width="1.5"/>
      <circle cx="72" cy="34" r="8" fill="#1a7f37" stroke="#fff" stroke-width="1.5"/>
      <text x="72" y="37" text-anchor="middle" font-family="sans-serif" font-size="9" font-weight="600" fill="#fff">A</text>
      <circle cx="78" cy="39" r="4" fill="#238636" stroke="#fff" stroke-width="1.5"/>
      <circle cx="86" cy="34" r="8" fill="#e16f24" stroke="#fff" stroke-width="1.5"/>
      <text x="86" y="37" text-anchor="middle" font-family="sans-serif" font-size="9" font-weight="600" fill="#fff">D</text>
      <circle cx="92" cy="39" r="4" fill="#da3633" stroke="#fff" stroke-width="1.5"/>
      <use href="#comment-icon" x="100" y="28" width="12" height="12"/>
      <text x="128" y="37" font-family="sans-serif" font-size="11" fill="#656d76" text-anchor="end">24</text>
    </g>

    <!-- #151 Add pagination to list endpoints -->
    <g transform="translate(680,408)">
      <rect x="-140" y="-60" width="280" height="120" rx="8" ry="8" fill="#dafbe1" stroke="#238636" stroke-width="1.5"/>
      <circle cx="-122" cy="-36" r="5" fill="#238636"/>
      <text x="-108" y="-33" font-family="sans-serif" font-size="13" font-weight="600" fill="#1f2328">#151 Add pagination to list endpoints</text>
      <text x="-108" y="-11" font-family="sans-serif" font-size="11" fill="#656d76">feat/api-pagination</text>
      <text x="-108" y="11" font-family="sans-serif" font-size="11" fill="#656d76">4d ago</text>
      <text x="95" y="11" font-family="sans-serif" font-size="11" font-weight="600" fill="#1a7f37" text-anchor="end">+215</text>
      <text x="128" y="11" font-family="sans-serif" font-size="11" font-weight="600" fill="#cf222e" text-anchor="end">−56</text>
      <circle cx="-114" cy="34" r="8" fill="#e16f24"/>
      <text x="-114" y="37" text-anchor="middle" font-family="sans-serif" font-size="9" font-weight="600" fill="#fff">D</text>
      <text x="-100" y="37" font-family="sans-serif" font-size="11" fill="#656d76">danielr</text>
      <circle cx="94" cy="34" r="8" fill="#8250df" stroke="#fff" stroke-width="1.5"/>
      <text x="94" y="37" text-anchor="middle" font-family="sans-serif" font-size="9" font-weight="600" fill="#fff">J</text>
      <circle cx="100" cy="39" r="4" fill="#238636" stroke="#fff" stroke-width="1.5"/>
      <use href="#comment-icon" x="108" y="28" width="12" height="12"/>
      <text x="128" y="37" font-family="sans-serif" font-size="11" fill="#656d76" text-anchor="end">3</text>
    </g>

    <!-- #142 Add authentication middleware -->
    <g transform="translate(340,612)">
      <rect x="-140" y="-60" width="280" height="120" rx="8" ry="8" fill="#dafbe1" stroke="#238636" stroke-width="1.5"/>
      <circle cx="-122" cy="-36" r="5" fill="#238636"/>
      <text x="-108" y="-33" font-family="sans-serif" font-size="13" font-weight="600" fill="#1f2328">#142 Add authentication middleware</text>
      <text x="-108" y="-11" font-family="sans-serif" font-size="11" fill="#656d76">feat/auth-middleware</text>
      <text x="-108" y="11" font-family="sans-serif" font-size="11" fill="#656d76">5d ago</text>
      <text x="95" y="11" font-family="sans-serif" font-size="11" font-weight="600" fill="#1a7f37" text-anchor="end">+482</text>
      <text x="128" y="11" font-family="sans-serif" font-size="11" font-weight="600" fill="#cf222e" text-anchor="end">−37</text>
      <circle cx="-114" cy="34" r="8" fill="#bf3989"/>
      <text x="-114" y="37" text-anchor="middle" font-family="sans-serif" font-size="9" font-weight="600" fill="#fff">S</text>
      <text x="-100" y="37" font-family="sans-serif" font-size="11" fill="#656d76">sarahchen</text>
      <circle cx="72" cy="34" r="8" fill="#8250df" stroke="#fff" stroke-width="1.5"/>
      <text x="72" y="37" text-anchor="middle" font-family="sans-serif" font-size="9" font-weight="600" fill="#fff">J</text>
      <circle cx="78" cy="39" r="4" fill="#238636" stroke="#fff" stroke-width="1.5"/>
      <circle cx="86" cy="34" r="8" fill="#1a7f37" stroke="#fff" stroke-width="1.5"/>
      <text x="86" y="37" text-anchor="middle" font-family="sans-serif" font-size="9" font-weight="600" fill="#fff">A</text>
      <circle cx="92" cy="39" r="4" fill="#238636" stroke="#fff" stroke-width="1.5"/>
      <use href="#comment-icon" x="100" y="28" width="12" height="12"/>
      <text x="128" y="37" font-family="sans-serif" font-size="11" fill="#656d76" text-anchor="end">12</text>
    </g>

    <!-- #164 Add JWT session management -->
    <g transform="translate(680,544)">
      <rect x="-140" y="-60" width="280" height="120" rx="8" ry="8" fill="#dafbe1" stroke="#238636" stroke-width="1.5"/>
      <circle cx="-122" cy="-36" r="5" fill="#238636"/>
      <text x="-108" y="-33" font-family="sans-serif" font-size="13" font-weight="600" fill="#1f2328">#164 Add JWT session management</text>
      <text x="-108" y="-11" font-family="sans-serif" font-size="11" fill="#656d76">feat/session-jwt</text>
      <text x="-108" y="11" font-family="sans-serif" font-size="11" fill="#656d76">2d ago</text>
      <text x="95" y="11" font-family="sans-serif" font-size="11" font-weight="600" fill="#1a7f37" text-anchor="end">+274</text>
      <text x="128" y="11" font-family="sans-serif" font-size="11" font-weight="600" fill="#cf222e" text-anchor="end">−19</text>
      <circle cx="-114" cy="34" r="8" fill="#e16f24"/>
      <text x="-114" y="37" text-anchor="middle" font-family="sans-serif" font-size="9" font-weight="600" fill="#fff">D</text>
      <text x="-100" y="37" font-family="sans-serif" font-size="11" fill="#656d76">danielr</text>
      <circle cx="80" cy="34" r="8" fill="#bf3989" stroke="#fff" stroke-width="1.5"/>
      <text x="80" y="37" text-anchor="middle" font-family="sans-serif" font-size="9" font-weight="600" fill="#fff">S</text>
      <circle cx="86" cy="39" r="4" fill="#238636" stroke="#fff" stroke-width="1.5"/>
      <circle cx="94" cy="34" r="8" fill="#8250df" stroke="#fff" stroke-width="1.5"/>
      <text x="94" y="37" text-anchor="middle" font-family="sans-serif" font-size="9" font-weight="600" fill="#fff">J</text>
      <circle cx="100" cy="39" r="4" fill="#8b949e" stroke="#fff" stroke-width="1.5"/>
      <use href="#comment-icon" x="108" y="28" width="12" height="12"/>
      <text x="128" y="37" font-family="sans-serif" font-size="11" fill="#656d76" text-anchor="end">8</text>
    </g>

    <!-- #167 Add CSRF protection middleware (draft) -->
    <g transform="translate(1020,544)">
      <rect x="-140" y="-60" width="280" height="120" rx="8" ry="8" fill="#f6f8fa" stroke="#656d76" stroke-width="1.5"/>
      <circle cx="-122" cy="-36" r="5" fill="#656d76"/>
      <text x="-108" y="-33" font-family="sans-serif" font-size="13" font-weight="600" fill="#1f2328">#167 Add CSRF protection middleware</text>
      <text x="-108" y="-11" font-family="sans-serif" font-size="11" fill="#656d76">feat/csrf-protection</text>
      <text x="-108" y="11" font-family="sans-serif" font-size="11" fill="#656d76">3h ago</text>
      <text x="95" y="11" font-family="sans-serif" font-size="11" font-weight="600" fill="#1a7f37" text-anchor="end">+112</text>
      <text x="128" y="11" font-family="sans-serif" font-size="11" font-weight="600" fill="#cf222e" text-anchor="end">−6</text>
      <circle cx="-114" cy="34" r="8" fill="#e16f24"/>
      <text x="-114" y="37" text-anchor="middle" font-family="sans-serif" font-size="9" font-weight="600" fill="#fff">D</text>
      <text x="-100" y="37" font-family="sans-serif" font-size="11" fill="#656d76">danielr</text>
      <circle cx="120" cy="34" r="8" fill="#bf3989" stroke="#fff" stroke-width="1.5"/>
      <text x="120" y="37" text-anchor="middle" font-family="sans-serif" font-size="9" font-weight="600" fill="#fff">S</text>
      <circle cx="126" cy="39" r="4" fill="#d29922" stroke="#fff" stroke-width="1.5"/>
    </g>

    <!-- #156 Implement OAuth2 login flow (highlighted) -->
    <g transform="translate(680,680)">
      <rect x="-140" y="-60" width="280" height="120" rx="8" ry="8" fill="#dafbe1" stroke="#238636" stroke-width="5"/>
      <circle cx="-122" cy="-36" r="5" fill="#238636"/>
      <text x="-108" y="-33" font-family="sans-serif" font-size="13" font-weight="600" fill="#1f2328">#156 Implement OAuth2 login flow</text>
      <text x="-108" y="-11" font-family="sans-serif" font-size="11" fill="#656d76">feat/oauth-login</text>
      <text x="-108" y="11" font-family="sans-serif" font-size="11" fill="#656d76">3d ago</text>
      <text x="95" y="11" font-family="sans-serif" font-size="11" font-weight="600" fill="#1a7f37" text-anchor="end">+310</text>
      <text x="128" y="11" font-family="sans-serif" font-size="11" font-weight="600" fill="#cf222e" text-anchor="end">−14</text>
      <circle cx="-114" cy="34" r="8" fill="#bf3989"/>
      <text x="-114" y="37" text-anchor="middle" font-family="sans-serif" font-size="9" font-weight="600" fill="#fff">S</text>
      <text x="-100" y="37" font-family="sans-serif" font-size="11" fill="#656d76">sarahchen</text>
      <circle cx="80" cy="34" r="8" fill="#8250df" stroke="#fff" stroke-width="1.5"/>
      <text x="80" y="37" text-anchor="middle" font-family="sans-serif" font-size="9" font-weight="600" fill="#fff">J</text>
      <circle cx="86" cy="39" r="4" fill="#8b949e" stroke="#fff" stroke-width="1.5"/>
      <circle cx="94" cy="34" r="8" fill="#e16f24" stroke="#fff" stroke-width="1.5"/>
      <text x="94" y="37" text-anchor="middle" font-family="sans-serif" font-size="9" font-weight="600" fill="#fff">D</text>
      <circle cx="100" cy="39" r="4" fill="#d29922" stroke="#fff" stroke-width="1.5"/>
      <use href="#comment-icon" x="108" y="28" width="12" height="12"/>
      <text x="128" y="37" font-family="sans-serif" font-size="11" fill="#656d76" text-anchor="end">5</text>
    </g>

    <!-- #163 Add role-based access control (draft) -->
    <g transform="translate(1020,680)">
      <rect x="-140" y="-60" width="280" height="120" rx="8" ry="8" fill="#f6f8fa" stroke="#656d76" stroke-width="1.5"/>
      <circle cx="-122" cy="-36" r="5" fill="#656d76"/>
      <text x="-108" y="-33" font-family="sans-serif" font-size="13" font-weight="600" fill="#1f2328">#163 Add role-based access control</text>
      <text x="-108" y="-11" font-family="sans-serif" font-size="11" fill="#656d76">feat/rbac</text>
      <text x="-108" y="11" font-family="sans-serif" font-size="11" fill="#656d76">6h ago</text>
      <text x="95" y="11" font-family="sans-serif" font-size="11" font-weight="600" fill="#1a7f37" text-anchor="end">+189</text>
      <text x="128" y="11" font-family="sans-serif" font-size="11" font-weight="600" fill="#cf222e" text-anchor="end">−4</text>
      <circle cx="-114" cy="34" r="8" fill="#bf3989"/>
      <text x="-114" y="37" text-anchor="middle" font-family="sans-serif" font-size="9" font-weight="600" fill="#fff">S</text>
      <text x="-100" y="37" font-family="sans-serif" font-size="11" fill="#656d76">sarahchen</text>
    </g>

    <!-- develop branch -->
    <g transform="translate(0,952)">
      <rect x="-70" y="-18" width="140" height="36" rx="8" ry="8" fill="#eddeff" stroke="#8250df" stroke-width="1.5"/>
      <text x="0" y="5" text-anchor="middle" font-family="sans-serif" font-size="13" font-weight="600" fill="#8250df">develop</text>
    </g>

    <!-- #144 Database migration framework -->
    <g transform="translate(340,952)">
      <rect x="-140" y="-60" width="280" height="120" rx="8" ry="8" fill="#dafbe1" stroke="#238636" stroke-width="1.5"/>
      <circle cx="-122" cy="-36" r="5" fill="#238636"/>
      <text x="-108" y="-33" font-family="sans-serif" font-size="13" font-weight="600" fill="#1f2328">#144 Database migration framework</text>
      <text x="-108" y="-11" font-family="sans-serif" font-size="11" fill="#656d76">feat/db-migrations</text>
      <text x="-108" y="11" font-family="sans-serif" font-size="11" fill="#656d76">7d ago</text>
      <text x="95" y="11" font-family="sans-serif" font-size="11" font-weight="600" fill="#1a7f37" text-anchor="end">+653</text>
      <text x="128" y="11" font-family="sans-serif" font-size="11" font-weight="600" fill="#cf222e" text-anchor="end">−29</text>
      <circle cx="-114" cy="34" r="8" fill="#8250df"/>
      <text x="-114" y="37" text-anchor="middle" font-family="sans-serif" font-size="9" font-weight="600" fill="#fff">J</text>
      <text x="-100" y="37" font-family="sans-serif" font-size="11" fill="#656d76">jaredm</text>
      <circle cx="58" cy="34" r="8" fill="#bf3989" stroke="#fff" stroke-width="1.5"/>
      <text x="58" y="37" text-anchor="middle" font-family="sans-serif" font-size="9" font-weight="600" fill="#fff">S</text>
      <circle cx="64" cy="39" r="4" fill="#238636" stroke="#fff" stroke-width="1.5"/>
      <circle cx="72" cy="34" r="8" fill="#e16f24" stroke="#fff" stroke-width="1.5"/>
      <text x="72" y="37" text-anchor="middle" font-family="sans-serif" font-size="9" font-weight="600" fill="#fff">D</text>
      <circle cx="78" cy="39" r="4" fill="#238636" stroke="#fff" stroke-width="1.5"/>
      <circle cx="86" cy="34" r="8" fill="#0969da" stroke="#fff" stroke-width="1.5"/>
      <text x="86" y="37" text-anchor="middle" font-family="sans-serif" font-size="9" font-weight="600" fill="#fff">K</text>
      <circle cx="92" cy="39" r="4" fill="#238636" stroke="#fff" stroke-width="1.5"/>
      <use href="#comment-icon" x="100" y="28" width="12" height="12"/>
      <text x="128" y="37" font-family="sans-serif" font-size="11" fill="#656d76" text-anchor="end">15</text>
    </g>

    <!-- #159 Add migration for user preferences table -->
    <g transform="translate(680,952)">
      <rect x="-140" y="-60" width="280" height="120" rx="8" ry="8" fill="#dafbe1" stroke="#238636" stroke-width="1.5"/>
      <circle cx="-122" cy="-36" r="5" fill="#238636"/>
      <text x="-108" y="-33" font-family="sans-serif" font-size="13" font-weight="600" fill="#1f2328">#159 Add migration for user preferences table</text>
      <text x="-108" y="-11" font-family="sans-serif" font-size="11" fill="#656d76">feat/user-prefs-migration</text>
      <text x="-108" y="11" font-family="sans-serif" font-size="11" fill="#656d76">2d ago</text>
      <text x="95" y="11" font-family="sans-serif" font-size="11" font-weight="600" fill="#1a7f37" text-anchor="end">+78</text>
      <text x="128" y="11" font-family="sans-serif" font-size="11" font-weight="600" fill="#cf222e" text-anchor="end">−3</text>
      <circle cx="-114" cy="34" r="8" fill="#8250df"/>
      <text x="-114" y="37" text-anchor="middle" font-family="sans-serif" font-size="9" font-weight="600" fill="#fff">J</text>
      <text x="-100" y="37" font-family="sans-serif" font-size="11" fill="#656d76">jaredm</text>
      <circle cx="94" cy="34" r="8" fill="#bf3989" stroke="#fff" stroke-width="1.5"/>
      <text x="94" y="37" text-anchor="middle" font-family="sans-serif" font-size="9" font-weight="600" fill="#fff">S</text>
      <circle cx="100" cy="39" r="4" fill="#8b949e" stroke="#fff" stroke-width="1.5"/>
      <use href="#comment-icon" x="108" y="28" width="12" height="12"/>
      <text x="128" y="37" font-family="sans-serif" font-size="11" fill="#656d76" text-anchor="end">4</text>
    </g>
  </g>
</svg>
